<svg width="19" height="19" viewBox="0 0 19 19" fill="none" xmlns="http://www.w3.org/2000/svg">
<path fill-rule="evenodd" clip-rule="evenodd" d="M9.5 17.1C13.6974 17.1 17.1 13.6974 17.1 9.5C17.1 5.30264 13.6974 1.9 9.5 1.9C5.30264 1.9 1.9 5.30264 1.9 9.5C1.9 13.6974 5.30264 17.1 9.5 17.1ZM9.5 19C14.7467 19 19 14.7467 19 9.5C19 4.25329 14.7467 0 9.5 0C4.25329 0 0 4.25329 0 9.5C0 14.7467 4.25329 19 9.5 19Z" fill="#96AFB1"/>
<path d="M8.55 5.7C8.55 5.17533 8.97533 4.75 9.5 4.75C10.0247 4.75 10.45 5.17533 10.45 5.7C10.45 6.22467 10.0247 6.65 9.5 6.65C8.97533 6.65 8.55 6.22467 8.55 5.7Z" fill="#96AFB1"/>
<path d="M10.6052 13.0654C10.6497 13.7059 10.1421 14.25 9.5 14.25C8.85791 14.25 8.35028 13.7059 8.39477 13.0654L8.65349 9.33976C8.68437 8.89501 9.05417 8.55 9.5 8.55C9.94583 8.55 10.3156 8.89501 10.3465 9.33976L10.6052 13.0654Z" fill="#96AFB1"/>
</svg>
