<svg width="19" height="19" viewBox="0 0 19 19" fill="none" xmlns="http://www.w3.org/2000/svg">
<path fill-rule="evenodd" clip-rule="evenodd" d="M5.1039 2.85C5.1039 1.27599 6.41601 0 8.03459 0H10.9653C12.5838 0 13.896 1.27599 13.896 2.85H14.1153C16.9408 2.85 19.1769 5.17435 18.989 7.91597L18.5939 13.6792C18.3886 16.6734 15.8313 19 12.7455 19H6.25452C3.16872 19 0.611394 16.6734 0.40613 13.6792L0.0110388 7.91597C-0.176911 5.17435 2.0592 2.85 4.8847 2.85L5.1039 2.85ZM10.9653 1.9C11.5048 1.9 11.9422 2.32533 11.9422 2.85L7.05769 2.85C7.05769 2.32533 7.49506 1.9 8.03459 1.9H10.9653ZM4.8847 4.75C3.1894 4.75 1.84773 6.14461 1.9605 7.78958L1.96515 7.85733C2.01549 7.88012 2.0715 7.90512 2.13295 7.93204C2.45796 8.07443 2.93349 8.26982 3.524 8.47615C4.46854 8.80618 5.69331 9.15924 7.05769 9.37176V9.025C7.05769 7.97566 7.93243 7.125 9.01148 7.125H9.98838C11.0674 7.125 11.9422 7.97566 11.9422 9.025V9.37179C13.3066 9.15928 14.5315 8.8062 15.4761 8.47615C16.0666 8.26982 16.5421 8.07443 16.8671 7.93204C16.9286 7.90514 16.9845 7.88015 17.0348 7.85737L17.0395 7.78958C17.1523 6.14461 15.8106 4.75 14.1153 4.75L4.8847 4.75ZM2.86336 10.2642C2.58974 10.1686 2.33807 10.075 2.11112 9.98658L2.35559 13.5528C2.49244 15.5489 4.19732 17.1 6.25452 17.1H12.7455C14.8027 17.1 16.5076 15.5489 16.6444 13.5528L16.8889 9.98662C16.662 10.075 16.4103 10.1686 16.1367 10.2642C15.0437 10.6462 13.5846 11.0644 11.9422 11.2935V11.4C11.9422 12.7117 10.8487 13.775 9.49993 13.775C8.15112 13.775 7.05769 12.7117 7.05769 11.4V11.2935C5.41535 11.0644 3.95634 10.6461 2.86336 10.2642ZM9.49993 11.875C9.23017 11.875 9.01148 11.6623 9.01148 11.4V10.4671C9.01172 10.4549 9.01172 10.4428 9.01148 10.4307V9.025H9.98838V11.4C9.98838 11.6623 9.76969 11.875 9.49993 11.875Z" fill="#96AFB1"/>
</svg>
