<svg width="20" height="20" viewBox="0 0 20 20" fill="none" xmlns="http://www.w3.org/2000/svg">
<path fill-rule="evenodd" clip-rule="evenodd" d="M1.01343 0C0.45373 0 0 0.447715 0 1C0 1.55228 0.45373 2 1.01343 2H1.88442C2.39551 2 2.82663 2.37554 2.89002 2.87597L4.21967 13.3721C4.40985 14.8734 5.7032 16 7.23649 16H16.2149C16.7747 16 17.2284 15.5523 17.2284 15C17.2284 14.4477 16.7747 14 16.2149 14H7.23649C6.72539 14 6.29428 13.6245 6.23088 13.124L6.21517 13H16.4525C17.9858 13 19.2792 11.8734 19.4694 10.3721L19.9761 6.3721C20.2029 4.58155 18.788 3 16.9592 3H4.94838L4.90124 2.6279C4.71106 1.12661 3.41771 0 1.88442 0H1.01343ZM5.20174 5L5.96181 11H16.4525C16.9636 11 17.3947 10.6245 17.4581 10.124L17.9649 6.12403C18.0405 5.52718 17.5688 5 16.9592 5H5.20174Z" fill="#96AFB1"/>
<path d="M9.12091 18.5C9.12091 19.3284 8.44031 20 7.60076 20C6.7612 20 6.08061 19.3284 6.08061 18.5C6.08061 17.6716 6.7612 17 7.60076 17C8.44031 17 9.12091 17.6716 9.12091 18.5Z" fill="#96AFB1"/>
<path d="M14.6948 20C15.5344 20 16.2149 19.3284 16.2149 18.5C16.2149 17.6716 15.5344 17 14.6948 17C13.8552 17 13.1746 17.6716 13.1746 18.5C13.1746 19.3284 13.8552 20 14.6948 20Z" fill="#96AFB1"/>
</svg>
