<svg width="20" height="19" viewBox="0 0 20 19" fill="none" xmlns="http://www.w3.org/2000/svg">
<path fill-rule="evenodd" clip-rule="evenodd" d="M2.6607 4.98198C2.63646 4.68903 2.74233 4.40025 2.95019 4.19239L4.3644 2.77818C4.63223 2.51034 5.0284 2.41682 5.38774 2.5366L11.1654 4.46248L13.5374 2.09044C14.1145 1.51334 14.9033 0.979808 15.751 0.741188C16.6172 0.497373 17.6822 0.539618 18.5065 1.36396C19.3309 2.1883 19.3731 3.25331 19.1293 4.11948C18.8907 4.96719 18.3572 5.75599 17.7801 6.33308L15.408 8.70512L17.3339 14.4828C17.4537 14.8421 17.3602 15.2383 17.0923 15.5061L15.6781 16.9203C15.4703 17.1282 15.1815 17.234 14.8885 17.2098C14.5956 17.1856 14.3281 17.0336 14.1573 16.7944L11.3079 12.8053L9.92794 14.1852L10.6164 16.2505C10.7362 16.6099 10.6426 17.006 10.3748 17.2739L8.9606 18.6881C8.74511 18.9036 8.44312 19.009 8.14033 18.9745C7.83755 18.9401 7.56701 18.7694 7.40549 18.511L5.08012 14.7904L1.35953 12.465C1.10111 12.3035 0.930437 12.033 0.895953 11.7302C0.861469 11.4274 0.966936 11.1254 1.18242 10.9099L2.59664 9.49569C2.86447 9.22786 3.26064 9.13433 3.61997 9.25411L5.6853 9.94256L7.06522 8.56263L3.07606 5.71323C2.83686 5.54237 2.68495 5.27493 2.6607 4.98198ZM5.19911 4.77189L9.18828 7.6213C9.42748 7.79215 9.57939 8.0596 9.60364 8.35255C9.62788 8.6455 9.52201 8.93428 9.31415 9.14214L6.6625 11.7938C6.39467 12.0616 5.9985 12.1551 5.63917 12.0354L3.57383 11.3469L3.48551 11.4352L6.33581 13.2167C6.46458 13.2972 6.57333 13.4059 6.65381 13.5347L8.43525 16.385L8.52358 16.2967L7.83514 14.2313C7.71536 13.872 7.80888 13.4758 8.07671 13.208L10.7284 10.5563C10.9362 10.3485 11.225 10.2426 11.518 10.2669C11.8109 10.2911 12.0783 10.443 12.2492 10.6822L15.0986 14.6714L15.2411 14.5289L13.3152 8.75126C13.1954 8.39192 13.289 7.99575 13.5568 7.72792L16.3658 4.91887C16.7628 4.52193 17.0795 4.02029 17.2041 3.57757C17.3236 3.1533 17.242 2.92787 17.0923 2.77818C16.9426 2.62848 16.7172 2.54695 16.2929 2.66637C15.8502 2.79099 15.3486 3.10772 14.9516 3.50466L12.1426 6.31371C11.8747 6.58154 11.4786 6.67506 11.1192 6.55529L5.3416 4.6294L5.19911 4.77189Z" fill="#96AFB1"/>
</svg>
