<svg width="20" height="20" viewBox="0 0 20 20" fill="none" xmlns="http://www.w3.org/2000/svg">
<path d="M6.10449 8C6.65678 8 7.10449 8.44772 7.10449 9C7.10449 9.9655 8.07361 11 9.60449 11C11.1354 11 12.1045 9.9655 12.1045 9C12.1045 8.44772 12.5522 8 13.1045 8C13.6568 8 14.1045 8.44772 14.1045 9C14.1045 11.3482 11.9396 13 9.60449 13C7.26939 13 5.10449 11.3482 5.10449 9C5.10449 8.44772 5.55221 8 6.10449 8Z" fill="#96AFB1"/>
<path fill-rule="evenodd" clip-rule="evenodd" d="M14.1045 4L14.7409 4C15.2376 3.99998 15.6677 3.99997 16.0236 4.02825C16.4004 4.0582 16.7748 4.12427 17.1394 4.30125C17.6856 4.56646 18.1386 4.9912 18.4383 5.51933C18.6383 5.87175 18.7282 6.24115 18.7823 6.61529C18.8333 6.96859 18.8609 7.3978 18.8928 7.8935L19.0582 10.4677C19.151 11.9099 19.2246 13.0549 19.2067 13.9796C19.1884 14.9248 19.075 15.7345 18.7359 16.481C18.1902 17.6827 17.2635 18.6709 16.0993 19.2926C15.3761 19.6788 14.5754 19.8439 13.6332 19.9228C12.7116 20 11.5643 20 10.1191 20H9.09023C7.64509 20 6.49774 20 5.57616 19.9228C4.63401 19.8439 3.83327 19.6788 3.11004 19.2926C1.94587 18.6709 1.01916 17.6827 0.473425 16.481C0.134392 15.7345 0.0210134 14.9248 0.00270132 13.9796C-0.0152109 13.0549 0.0584017 11.91 0.15112 10.4678L0.316605 7.89358C0.348456 7.39785 0.376035 6.96861 0.427086 6.61529C0.481146 6.24115 0.571107 5.87175 0.771105 5.51933C1.07081 4.9912 1.52374 4.56646 2.07 4.30125C2.43453 4.12427 2.80894 4.0582 3.18577 4.02825C3.54164 3.99997 3.97176 3.99998 4.46851 4H5.10449C5.10449 1.6518 7.26938 0 9.60449 0C11.9396 0 14.1045 1.6518 14.1045 4ZM7.10449 4L12.1045 4C12.1045 3.0345 11.1354 2 9.60449 2C8.07361 2 7.10449 3.0345 7.10449 4ZM2.9435 6.10042C2.99263 6.07656 3.08924 6.04222 3.34421 6.02196C3.61133 6.00074 3.96124 6 4.50558 6H14.7038C15.2481 6 15.598 6.00074 15.8652 6.02196C16.1201 6.04222 16.2167 6.07656 16.2659 6.10042C16.448 6.18882 16.5989 6.3304 16.6988 6.50644C16.7258 6.55394 16.7663 6.64816 16.8028 6.9013C16.8412 7.16651 16.8643 7.51565 16.8993 8.05886L17.0595 10.5509C17.1557 12.0484 17.2231 13.1098 17.207 13.9408C17.1912 14.7609 17.0934 15.2611 16.9149 15.654C16.5511 16.4551 15.9333 17.1139 15.1572 17.5284C14.7765 17.7317 14.2836 17.8613 13.4663 17.9298C12.638 17.9992 11.5744 18 10.0739 18H9.13548C7.63496 18 6.57139 17.9992 5.7431 17.9298C4.92579 17.8613 4.43283 17.7317 4.05217 17.5284C3.27606 17.1139 2.65825 16.4551 2.29443 15.654C2.11599 15.2611 2.01821 14.7609 2.00233 13.9408C1.98623 13.1098 2.05364 12.0484 2.1499 10.5509L2.31011 8.05886C2.34503 7.51565 2.36821 7.16651 2.40653 6.9013C2.44311 6.64816 2.48357 6.55394 2.51053 6.50644C2.61043 6.3304 2.76141 6.18882 2.9435 6.10042Z" fill="#96AFB1"/>
</svg>
