<svg width="40" height="46" viewBox="0 0 40 46" fill="none" xmlns="http://www.w3.org/2000/svg">
<path fill-rule="evenodd" clip-rule="evenodd" d="M9.98321 5.49219C6.67514 5.972 4.32239 9.01996 4.60726 12.5201L6.15086 31.4852C6.3448 33.868 7.75526 35.9801 9.87836 37.067L16.8738 40.6482C18.8374 41.6534 21.1626 41.6534 23.1262 40.6482L30.1216 37.067C32.2447 35.9801 33.6552 33.868 33.8491 31.4852L35.3927 12.5201C35.6776 9.01996 33.3249 5.972 30.0168 5.49219C26.6816 5.00845 22.9602 4.59791 20 4.59791C17.0398 4.59791 13.3184 5.00845 9.98321 5.49219ZM0.0381321 12.8942C-0.430687 7.13409 3.46701 1.79156 9.32708 0.941612C12.7212 0.449322 16.7036 1.44515e-07 20 0C23.2963 -1.44515e-07 27.2788 0.449322 30.6729 0.941611C36.533 1.79156 40.4307 7.13409 39.9619 12.8942L38.4183 31.8593C38.095 35.8306 35.7443 39.3508 32.2058 41.1623L25.2103 44.7434C21.9376 46.4188 18.0624 46.4189 14.7897 44.7435L7.79423 41.1623C4.25573 39.3508 1.90496 35.8306 1.58173 31.8593L0.0381321 12.8942Z" fill="white"/>
<path fill-rule="evenodd" clip-rule="evenodd" d="M25.7216 14.0966C26.8207 14.7266 27.2026 16.1309 26.5745 17.2333L21.3353 26.4291C20.9941 27.028 20.4029 27.4415 19.7248 27.5557C19.0466 27.67 18.3532 27.4728 17.8357 27.0187L13.9063 23.5703C12.9536 22.7342 12.857 21.2818 13.6906 20.3262C14.5243 19.3707 15.9724 19.2739 16.9251 20.11L18.7454 21.7075L22.5942 14.9521C23.2222 13.8497 24.6224 13.4667 25.7216 14.0966Z" fill="white"/>
</svg>
