<svg width="31" height="44" viewBox="0 0 31 44" fill="none" xmlns="http://www.w3.org/2000/svg">
<path fill-rule="evenodd" clip-rule="evenodd" d="M4.42857 2.2C4.42857 0.984973 3.4372 0 2.21428 0C0.991369 0 0 0.984973 0 2.2V41.8C0 43.015 0.991371 44 2.21429 44C3.4372 44 4.42857 43.015 4.42857 41.8L4.42857 28.6H28.7857C29.6314 28.6 30.4033 28.1214 30.7748 27.3666C31.1464 26.6118 31.0528 25.7126 30.5335 25.0493L23.8409 16.5L30.5335 7.95067C31.0528 7.28741 31.1464 6.38824 30.7748 5.63343C30.4033 4.87861 29.6314 4.4 28.7857 4.4H4.42857V2.2ZM4.42857 8.8V24.2H24.2583L19.2879 17.8507C18.6659 17.0562 18.6659 15.9438 19.2879 15.1493L24.2583 8.8H4.42857Z" fill="white"/>
</svg>
