<svg width="40" height="41" viewBox="0 0 40 41" fill="none" xmlns="http://www.w3.org/2000/svg">
<path fill-rule="evenodd" clip-rule="evenodd" d="M20 3.11181C18.5883 1.6712 16.6208 0.777344 14.4444 0.777344C10.1489 0.777344 6.66667 4.25957 6.66667 8.55512C6.66667 9.74801 6.93521 10.8782 7.41515 11.8885H6.66667C2.98477 11.8885 0 14.8732 0 18.5551V22.9996C0 24.974 0.858335 26.748 2.22222 27.9687L2.22222 34.1107C2.22222 37.7926 5.20699 40.7773 8.88889 40.7773H31.1111C34.793 40.7773 37.7778 37.7926 37.7778 34.1107V27.9687C39.1417 26.748 40 24.974 40 22.9996V18.5551C40 14.8732 37.0152 11.8885 33.3333 11.8885H32.5849C33.0648 10.8782 33.3333 9.74801 33.3333 8.55512C33.3333 4.25957 29.8511 0.777344 25.5556 0.777344C23.3792 0.777344 21.4117 1.6712 20 3.11181ZM14.4444 5.22179C12.6035 5.22179 11.1111 6.71417 11.1111 8.55512C11.1111 10.3961 12.6035 11.8885 14.4444 11.8885H17.7778V8.55512C17.7778 6.71417 16.2854 5.22179 14.4444 5.22179ZM22.2222 16.3329V25.2218H33.3333C34.5606 25.2218 35.5556 24.2269 35.5556 22.9996V18.5551C35.5556 17.3278 34.5606 16.3329 33.3333 16.3329H22.2222ZM25.5556 11.8885C27.3965 11.8885 28.8889 10.3961 28.8889 8.55512C28.8889 6.71417 27.3965 5.22179 25.5556 5.22179C23.7146 5.22179 22.2222 6.71417 22.2222 8.55512L22.2222 11.8885H25.5556ZM17.7778 16.3329H6.66667C5.43937 16.3329 4.44444 17.3278 4.44444 18.5551V22.9996C4.44445 24.2269 5.43937 25.2218 6.66667 25.2218H17.7778L17.7778 16.3329ZM17.7778 29.6662H6.66667L6.66667 34.1107C6.66667 35.338 7.66159 36.3329 8.88889 36.3329H17.7778V29.6662ZM22.2222 36.3329V29.6662H33.3333V34.1107C33.3333 35.338 32.3384 36.3329 31.1111 36.3329H22.2222Z" fill="white"/>
</svg>
