<svg width="44" height="41" viewBox="0 0 44 41" fill="none" xmlns="http://www.w3.org/2000/svg">
<path fill-rule="evenodd" clip-rule="evenodd" d="M13.09 4.31579C8.26622 4.31579 4.4 8.12828 4.4 13.1532C4.4 16.2429 5.75688 19.2045 8.56307 22.6685C11.3963 26.1659 15.4884 29.9182 20.6302 34.6258L20.6333 34.6286L22.0057 35.8901L23.3681 34.6473L23.3702 34.6454C28.5114 29.9282 32.6032 26.1715 35.4365 22.6716C38.2431 19.2047 39.6 16.2429 39.6 13.1532C39.6 8.12828 35.7338 4.31579 30.91 4.31579C28.1551 4.31579 25.458 5.62148 23.6951 7.71159C23.2772 8.20713 22.6557 8.49399 22 8.49399C21.3443 8.49399 20.7228 8.20713 20.3049 7.71159C18.542 5.62148 15.8449 4.31579 13.09 4.31579ZM0 13.1532C0 5.86334 5.71698 0 13.09 0C16.3945 0 19.5589 1.23416 22 3.27485C24.4411 1.23416 27.6055 0 30.91 0C38.283 0 44 5.86334 44 13.1532C44 17.6202 41.9909 21.5154 38.8823 25.3554C35.8379 29.116 31.5339 33.0648 26.5565 37.6316L26.3739 37.7991L26.3692 37.8034L23.4982 40.4223C22.6514 41.1947 21.3395 41.1923 20.4957 40.4167L17.6278 37.7807L17.4945 37.6586C12.4957 33.082 8.17312 29.1245 5.11818 25.3534C2.00912 21.5156 0 17.6202 0 13.1532Z" fill="white"/>
</svg>
