<svg width="28" height="29" viewBox="0 0 28 29" fill="none" xmlns="http://www.w3.org/2000/svg">
<path d="M21.6378 24.7479H6.2383C6.01141 24.7479 5.79381 24.6578 5.63338 24.4973C5.47294 24.3369 5.38281 24.1193 5.38281 23.8924V5.07179C5.38281 4.8449 5.47294 4.62731 5.63338 4.46687C5.79381 4.30644 6.01141 4.21631 6.2383 4.21631H16.5049L22.4933 10.2047V23.8924C22.4933 24.0048 22.4712 24.116 22.4282 24.2198C22.3852 24.3236 22.3222 24.4179 22.2428 24.4973C22.1633 24.5768 22.069 24.6398 21.9652 24.6828C21.8614 24.7258 21.7502 24.7479 21.6378 24.7479Z" stroke="#96AFB1" stroke-width="2" stroke-linecap="round" stroke-linejoin="round"/>
<path d="M16.5039 4.21631V10.2047H22.4931" stroke="#96AFB1" stroke-width="2" stroke-linecap="round" stroke-linejoin="round"/>
<path d="M10.5156 15.3379H17.3595" stroke="#96AFB1" stroke-width="2" stroke-linecap="round" stroke-linejoin="round"/>
<path d="M10.5156 18.7598H17.3595" stroke="#96AFB1" stroke-width="2" stroke-linecap="round" stroke-linejoin="round"/>
</svg>
