<svg width="21" height="18" viewBox="0 0 21 18" fill="none" xmlns="http://www.w3.org/2000/svg">
<path d="M4.7158 11.29L3.4158 10L15.0058 10C15.271 10 15.5254 9.89464 15.7129 9.70711C15.9004 9.51957 16.0058 9.26522 16.0058 9C16.0058 8.73478 15.9004 8.48043 15.7129 8.29289C15.5254 8.10536 15.271 8 15.0058 8L3.4158 8L4.7158 6.71C4.80953 6.61704 4.88392 6.50644 4.93469 6.38458C4.98546 6.26272 5.0116 6.13201 5.0116 6C5.0116 5.86799 4.98546 5.73728 4.93469 5.61542C4.88392 5.49356 4.80953 5.38296 4.7158 5.29C4.62283 5.19627 4.51223 5.12188 4.39037 5.07111C4.26852 5.02034 4.13781 4.9942 4.0058 4.9942C3.87379 4.9942 3.74308 5.02034 3.62122 5.07111C3.49936 5.12188 3.38876 5.19627 3.2958 5.29L0.295798 8.29C0.202069 8.38296 0.127675 8.49356 0.0769065 8.61542C0.0261378 8.73728 -3.99173e-07 8.86799 -3.93402e-07 9C-3.87632e-07 9.13201 0.0261379 9.26272 0.0769065 9.38458C0.127675 9.50644 0.20207 9.61704 0.295798 9.71L3.2958 12.71C3.4841 12.8983 3.7395 13.0041 4.0058 13.0041C4.2721 13.0041 4.52749 12.8983 4.7158 12.71C4.9041 12.5217 5.00989 12.2663 5.00989 12C5.00989 11.7337 4.9041 11.4783 4.7158 11.29ZM7.0058 3L7.0058 5C7.0058 5.26522 7.11115 5.51957 7.29869 5.70711C7.48623 5.89464 7.74058 6 8.0058 6C8.27101 6 8.52537 5.89464 8.7129 5.70711C8.90044 5.51957 9.0058 5.26522 9.0058 5L9.0058 3C9.0058 2.73478 9.11115 2.48043 9.29869 2.29289C9.48623 2.10536 9.74058 2 10.0058 2L17.0058 2C17.271 2 17.5254 2.10536 17.7129 2.29289C17.9004 2.48043 18.0058 2.73478 18.0058 3L18.0058 15C18.0058 15.2652 17.9004 15.5196 17.7129 15.7071C17.5254 15.8946 17.271 16 17.0058 16L10.0058 16C9.74058 16 9.48623 15.8946 9.29869 15.7071C9.11116 15.5196 9.0058 15.2652 9.0058 15L9.0058 13C9.0058 12.7348 8.90044 12.4804 8.7129 12.2929C8.52537 12.1054 8.27101 12 8.0058 12C7.74058 12 7.48623 12.1054 7.29869 12.2929C7.11116 12.4804 7.0058 12.7348 7.0058 13L7.0058 15C7.0058 15.7956 7.32187 16.5587 7.88448 17.1213C8.44709 17.6839 9.21015 18 10.0058 18L17.0058 18C17.8014 18 18.5645 17.6839 19.1271 17.1213C19.6897 16.5587 20.0058 15.7956 20.0058 15L20.0058 3C20.0058 2.20435 19.6897 1.44129 19.1271 0.878678C18.5645 0.31607 17.8014 -7.78126e-07 17.0058 -7.43347e-07L10.0058 -4.37367e-07C9.21015 -4.02588e-07 8.44709 0.31607 7.88448 0.878679C7.32187 1.44129 7.0058 2.20435 7.0058 3Z" fill="#CCE1E3"/>
</svg>
