<svg width="15" height="19" viewBox="0 0 15 19" fill="none" xmlns="http://www.w3.org/2000/svg">
<path d="M7.49963 10.0832C8.78629 10.0832 9.82933 9.0402 9.82933 7.75353C9.82933 6.46687 8.78629 5.42383 7.49963 5.42383C6.21297 5.42383 5.16992 6.46687 5.16992 7.75353C5.16992 9.0402 6.21297 10.0832 7.49963 10.0832Z" stroke="#CCE1E3" stroke-width="2" stroke-linecap="round" stroke-linejoin="round"/>
<path d="M13.3243 7.75298C13.3243 12.9948 7.50005 17.0718 7.50005 17.0718C7.50005 17.0718 1.67578 12.9948 1.67578 7.75298C1.67578 6.20828 2.28941 4.72686 3.38167 3.6346C4.47393 2.54234 5.95536 1.92871 7.50005 1.92871C9.04474 1.92871 10.5262 2.54234 11.6184 3.6346C12.7107 4.72686 13.3243 6.20828 13.3243 7.75298V7.75298Z" stroke="#CCE1E3" stroke-width="2" stroke-linecap="round" stroke-linejoin="round"/>
</svg>
