<svg width="22" height="22" viewBox="0 0 22 22" fill="none" xmlns="http://www.w3.org/2000/svg">
<path fill-rule="evenodd" clip-rule="evenodd" d="M11 19.8C15.8601 19.8 19.8 15.8601 19.8 11C19.8 6.13989 15.8601 2.2 11 2.2C6.13989 2.2 2.2 6.13989 2.2 11C2.2 15.8601 6.13989 19.8 11 19.8ZM11 22C17.0751 22 22 17.0751 22 11C22 4.92487 17.0751 0 11 0C4.92487 0 0 4.92487 0 11C0 17.0751 4.92487 22 11 22Z" fill="#96AFB1"/>
<path d="M9.9 6.6C9.9 5.99249 10.3925 5.5 11 5.5C11.6075 5.5 12.1 5.99249 12.1 6.6C12.1 7.20751 11.6075 7.7 11 7.7C10.3925 7.7 9.9 7.20751 9.9 6.6Z" fill="#96AFB1"/>
<path d="M12.2797 15.1283C12.3312 15.87 11.7435 16.5 11 16.5C10.2565 16.5 9.66875 15.87 9.72026 15.1283L10.0198 10.8145C10.0556 10.2995 10.4838 9.9 11 9.9C11.5162 9.9 11.9444 10.2995 11.9802 10.8145L12.2797 15.1283Z" fill="#96AFB1"/>
</svg>
