<svg width="18" height="18" viewBox="0 0 18 18" fill="none" xmlns="http://www.w3.org/2000/svg">
<path d="M5.65865 8.94683C6.36322 10.3873 7.53084 11.5496 8.97449 12.2476C9.08011 12.2977 9.19695 12.3193 9.3135 12.3105C9.43005 12.3017 9.5423 12.2627 9.63919 12.1973L11.7649 10.7799C11.8589 10.7172 11.967 10.6789 12.0796 10.6686C12.1921 10.6583 12.3054 10.6762 12.4093 10.7207L16.386 12.425C16.5211 12.4824 16.6338 12.5821 16.7073 12.7092C16.7808 12.8362 16.811 12.9837 16.7934 13.1294C16.6677 14.113 16.1878 15.017 15.4436 15.6722C14.6993 16.3274 13.7418 16.6889 12.7503 16.6889C9.68777 16.6889 6.75071 15.4723 4.5852 13.3068C2.4197 11.1413 1.20313 8.20426 1.20312 5.14177C1.20318 4.15022 1.56465 3.19269 2.21985 2.44846C2.87506 1.70423 3.77907 1.22435 4.76262 1.09865C4.90833 1.08102 5.05582 1.11122 5.18287 1.1847C5.30993 1.25818 5.40966 1.37096 5.46705 1.50605L7.17284 5.48624C7.21696 5.58919 7.23494 5.70145 7.22518 5.81303C7.21541 5.92461 7.1782 6.03205 7.11686 6.12577L5.70434 8.28404C5.64005 8.38113 5.60205 8.49323 5.59404 8.6094C5.58603 8.72557 5.60829 8.84183 5.65865 8.94683Z" stroke="#FF4207" stroke-width="2" stroke-linecap="round" stroke-linejoin="round"/>
</svg>
