<svg width="29" height="28" viewBox="0 0 29 28" fill="none" xmlns="http://www.w3.org/2000/svg">
<path d="M13.5605 1.33316C13.8769 0.449207 15.127 0.449206 15.4434 1.33316L18.229 9.11449C18.3677 9.50192 18.7295 9.76484 19.1409 9.77702L27.4021 10.0217C28.3406 10.0494 28.7269 11.2384 27.984 11.8125L21.4443 16.8662C21.1187 17.1179 20.9805 17.5433 21.096 17.9382L23.4162 25.8708C23.6798 26.7719 22.6684 27.5067 21.8928 26.9776L15.0655 22.3196C14.7256 22.0877 14.2783 22.0877 13.9384 22.3196L7.11108 26.9776C6.3355 27.5067 5.32414 26.7719 5.58771 25.8708L7.90791 17.9382C8.02343 17.5433 7.88521 17.1179 7.5596 16.8662L1.0199 11.8125C0.27699 11.2384 0.663295 10.0494 1.60177 10.0217L9.86303 9.77702C10.2744 9.76484 10.6362 9.50192 10.7749 9.11449L13.5605 1.33316Z" fill="#CCE1E3"/>
</svg>
