<svg width="30" height="30" viewBox="0 0 30 30" fill="none" xmlns="http://www.w3.org/2000/svg">
<path d="M21.1105 21.1106H8.01046L4.80991 3.50755C4.77146 3.29607 4.66 3.1048 4.49498 2.96707C4.32995 2.82935 4.12182 2.75391 3.90688 2.75391H1.83594" stroke="white" stroke-width="3" stroke-linecap="round" stroke-linejoin="round"/>
<path d="M9.1774 25.6995C10.4447 25.6995 11.472 24.6722 11.472 23.4049C11.472 22.1377 10.4447 21.1104 9.1774 21.1104C7.91013 21.1104 6.88281 22.1377 6.88281 23.4049C6.88281 24.6722 7.91013 25.6995 9.1774 25.6995Z" stroke="white" stroke-width="3" stroke-linecap="round" stroke-linejoin="round"/>
<path d="M21.111 25.6995C22.3783 25.6995 23.4056 24.6722 23.4056 23.4049C23.4056 22.1377 22.3783 21.1104 21.111 21.1104C19.8437 21.1104 18.8164 22.1377 18.8164 23.4049C18.8164 24.6722 19.8437 25.6995 21.111 25.6995Z" stroke="white" stroke-width="3" stroke-linecap="round" stroke-linejoin="round"/>
<path d="M7.1766 16.5211H21.5815C22.0114 16.5211 22.4277 16.3702 22.7577 16.0948C23.0878 15.8193 23.3107 15.4368 23.3876 15.0138L24.7823 7.34277H5.50781" stroke="white" stroke-width="3" stroke-linecap="round" stroke-linejoin="round"/>
</svg>
