<svg width="24" height="26" viewBox="0 0 24 26" fill="none" xmlns="http://www.w3.org/2000/svg">
<path d="M0 10.7779C0 9.11882 0.822934 7.56781 2.19671 6.63764L10.8787 0.759224C11.5559 0.300685 12.4441 0.300685 13.1213 0.759224L21.8033 6.63764C23.1771 7.56781 24 9.11882 24 10.7779V24C24 25.1046 23.1046 26 22 26H17.7008C17.2635 26 16.9091 25.6456 16.9091 25.2083V20.8902C16.9091 18.0283 14.5891 15.7083 11.7273 15.7083C9.16668 15.7083 7.09091 17.7841 7.09091 20.3447V25.2083C7.09091 25.6456 6.73647 26 6.29924 26H2C0.89543 26 0 25.1046 0 24V10.7779Z" fill="white"/>
</svg>
