<svg width="26" height="26" viewBox="0 0 26 26" fill="none" xmlns="http://www.w3.org/2000/svg">
<path d="M21.1105 20.1106H8.01046L4.80991 2.50755C4.77146 2.29607 4.66 2.1048 4.49498 1.96707C4.32995 1.82935 4.12182 1.75391 3.90688 1.75391H1.83594" stroke="#CCE1E3" stroke-width="2" stroke-linecap="round" stroke-linejoin="round"/>
<path d="M9.1774 24.6995C10.4447 24.6995 11.472 23.6722 11.472 22.4049C11.472 21.1377 10.4447 20.1104 9.1774 20.1104C7.91013 20.1104 6.88281 21.1377 6.88281 22.4049C6.88281 23.6722 7.91013 24.6995 9.1774 24.6995Z" stroke="#CCE1E3" stroke-width="2" stroke-linecap="round" stroke-linejoin="round"/>
<path d="M21.111 24.6995C22.3783 24.6995 23.4056 23.6722 23.4056 22.4049C23.4056 21.1377 22.3783 20.1104 21.111 20.1104C19.8437 20.1104 18.8164 21.1377 18.8164 22.4049C18.8164 23.6722 19.8437 24.6995 21.111 24.6995Z" stroke="#CCE1E3" stroke-width="2" stroke-linecap="round" stroke-linejoin="round"/>
<path d="M7.1766 15.5211H21.5815C22.0114 15.5211 22.4277 15.3702 22.7577 15.0948C23.0878 14.8193 23.3107 14.4368 23.3876 14.0138L24.7823 6.34277H5.50781" stroke="#CCE1E3" stroke-width="2" stroke-linecap="round" stroke-linejoin="round"/>
</svg>
