<svg width="22" height="21" viewBox="0 0 22 21" fill="none" xmlns="http://www.w3.org/2000/svg">
<path d="M20.7096 4.53409L19.2896 3.12409L20.7096 1.71409C20.8979 1.52579 21.0037 1.27039 21.0037 1.00409C21.0037 0.73779 20.8979 0.482395 20.7096 0.294092C20.5213 0.105788 20.2659 0 19.9996 0C19.7333 0 19.4779 0.105788 19.2896 0.294092L8.74961 10.8341C7.71565 10.1519 6.46528 9.87786 5.24078 10.065C4.01628 10.2521 2.90483 10.8871 2.12179 11.8469C1.33876 12.8068 0.939896 14.0231 1.00248 15.2602C1.06507 16.4974 1.58466 17.6672 2.46056 18.5431C3.33647 19.419 4.50633 19.9386 5.74346 20.0012C6.9806 20.0638 8.19693 19.6649 9.15676 18.8819C10.1166 18.0989 10.7516 16.9874 10.9387 15.7629C11.1258 14.5384 10.8518 13.2881 10.1696 12.2541L15.0496 7.36409L16.4596 8.78409C16.553 8.87677 16.6639 8.9501 16.7857 8.99986C16.9075 9.04963 17.038 9.07485 17.1696 9.07409C17.3012 9.07485 17.4317 9.04963 17.5535 8.99986C17.6754 8.9501 17.7862 8.87677 17.8796 8.78409C17.9733 8.69113 18.0477 8.58053 18.0985 8.45867C18.1493 8.33681 18.1754 8.2061 18.1754 8.07409C18.1754 7.94208 18.1493 7.81137 18.0985 7.68952C18.0477 7.56766 17.9733 7.45705 17.8796 7.36409L16.4596 6.00409L17.8796 4.58409L19.2896 6.00409C19.3831 6.09677 19.4939 6.1701 19.6157 6.21986C19.7375 6.26963 19.868 6.29485 19.9996 6.29409C20.1312 6.29485 20.2617 6.26963 20.3835 6.21986C20.5054 6.1701 20.6162 6.09677 20.7096 6.00409C20.8111 5.91045 20.8921 5.7968 20.9475 5.6703C21.0029 5.5438 21.0315 5.40719 21.0315 5.26909C21.0315 5.13099 21.0029 4.99439 20.9475 4.86789C20.8921 4.74139 20.8111 4.62773 20.7096 4.53409ZM5.99961 18.0041C5.40626 18.0041 4.82624 17.8281 4.3329 17.4985C3.83955 17.1689 3.45503 16.7003 3.22797 16.1521C3.00091 15.604 2.9415 15.0008 3.05725 14.4188C3.17301 13.8369 3.45873 13.3023 3.87829 12.8828C4.29785 12.4632 4.83239 12.1775 5.41434 12.0617C5.99628 11.946 6.59948 12.0054 7.14766 12.2325C7.69584 12.4595 8.16437 12.844 8.49402 13.3374C8.82366 13.8307 8.99961 14.4107 8.99961 15.0041C8.99961 15.7997 8.68354 16.5628 8.12093 17.1254C7.55832 17.688 6.79526 18.0041 5.99961 18.0041Z" fill="#CCE1E3"/>
</svg>
