<svg width="28" height="25" viewBox="0 0 28 25" fill="none" xmlns="http://www.w3.org/2000/svg">
<path d="M2 11H8V24H2C1.73478 24 1.48043 23.8946 1.29289 23.7071C1.10536 23.5196 1 23.2652 1 23V12C1 11.7348 1.10536 11.4804 1.29289 11.2929C1.48043 11.1054 1.73478 11 2 11V11Z" stroke="#CCE1E3" stroke-width="2" stroke-linecap="round" stroke-linejoin="round"/>
<path d="M8 11L13 1C13.5253 1 14.0454 1.10346 14.5307 1.30448C15.016 1.5055 15.457 1.80014 15.8284 2.17157C16.1999 2.54301 16.4945 2.98396 16.6955 3.46927C16.8965 3.95457 17 4.47471 17 5V8H24.7344C25.018 8 25.2984 8.06031 25.5569 8.17692C25.8154 8.29354 26.0461 8.4638 26.2338 8.6764C26.4215 8.88899 26.5618 9.13908 26.6454 9.41004C26.7291 9.68101 26.7542 9.96667 26.719 10.2481L25.219 22.2481C25.1585 22.7318 24.9235 23.1767 24.558 23.4994C24.1926 23.822 23.7219 24 23.2344 24H8" stroke="#CCE1E3" stroke-width="2" stroke-linecap="round" stroke-linejoin="round"/>
</svg>
