<svg width="13" height="13" viewBox="0 0 13 13" fill="none" xmlns="http://www.w3.org/2000/svg">
<path d="M1 2.97461H2.22222H12" stroke="#CEDFE2" stroke-width="1.5" stroke-linecap="round" stroke-linejoin="round"/>
<path d="M4.05501 2.97344V1.87344C4.05501 1.5817 4.18378 1.30191 4.41299 1.09562C4.6422 0.88933 4.95308 0.773438 5.27724 0.773438H7.72168C8.04583 0.773438 8.35671 0.88933 8.58592 1.09562C8.81513 1.30191 8.9439 1.5817 8.9439 1.87344V2.97344M10.7772 2.97344V10.6734C10.7772 10.9652 10.6485 11.245 10.4193 11.4513C10.19 11.6575 9.87917 11.7734 9.55501 11.7734H3.4439C3.11975 11.7734 2.80887 11.6575 2.57966 11.4513C2.35045 11.245 2.22168 10.9652 2.22168 10.6734V2.97344H10.7772Z" stroke="#CEDFE2" stroke-width="1.5" stroke-linecap="round" stroke-linejoin="round"/>
</svg>
