<svg width="17" height="17" viewBox="0 0 17 17" fill="none" xmlns="http://www.w3.org/2000/svg">
<path fill-rule="evenodd" clip-rule="evenodd" d="M16.2599 14.1302C16.8427 14.7189 16.8427 15.6734 16.2599 16.2622C15.6771 16.8509 14.7321 16.8509 14.1493 16.2622L8.50025 10.5558L2.85092 16.2625C2.2681 16.8512 1.32316 16.8512 0.740338 16.2625C0.157518 15.6737 0.157518 14.7192 0.740338 14.1305L6.38967 8.42376L1.05264 3.03254C0.46982 2.44381 0.46982 1.48927 1.05264 0.900537C1.63546 0.3118 2.5804 0.3118 3.16322 0.900537L8.50025 6.29175L13.837 0.900816C14.4198 0.312079 15.3648 0.312078 15.9476 0.900816C16.5304 1.48955 16.5304 2.44409 15.9476 3.03282L10.6108 8.42376L16.2599 14.1302Z" fill="#96AFB1"/>
</svg>
