<svg width="32" height="32" viewBox="0 0 32 32" fill="none" xmlns="http://www.w3.org/2000/svg">
<path d="M14 28C20.6274 28 26 22.6274 26 16C26 9.37258 20.6274 4 14 4C7.37258 4 2 9.37258 2 16C2 22.6274 7.37258 28 14 28Z" stroke="#CCE1E3" stroke-width="2" stroke-miterlimit="10"/>
<path d="M14 20C16.7614 20 19 17.7614 19 15C19 12.2386 16.7614 10 14 10C11.2386 10 9 12.2386 9 15C9 17.7614 11.2386 20 14 20Z" stroke="#CCE1E3" stroke-width="2" stroke-miterlimit="10"/>
<path d="M5.97461 24.9218C6.72787 23.4408 7.87626 22.1971 9.29265 21.3284C10.709 20.4598 12.3382 20 13.9997 20C15.6613 20 17.2904 20.4598 18.7068 21.3284C20.1232 22.1971 21.2716 23.4407 22.0248 24.9217" stroke="#CCE1E3" stroke-width="2" stroke-linecap="round" stroke-linejoin="round"/>
</svg>
