<svg width="20" height="13" viewBox="0 0 20 13" fill="none" xmlns="http://www.w3.org/2000/svg">
<path d="M19.7526 11.3632C19.7013 11.2691 19.3841 10.5142 17.8579 8.96248C16.2601 7.33765 16.4747 7.60149 18.3992 4.792C19.5713 3.08097 20.04 2.03606 19.8933 1.58937C19.7538 1.16357 18.8917 1.2759 18.8917 1.2759L16.0252 1.29418C16.0252 1.29418 15.8129 1.26283 15.6543 1.36602C15.5005 1.4679 15.4015 1.703 15.4015 1.703C15.4015 1.703 14.9472 3.02742 14.3415 4.1533C13.0644 6.52916 12.5529 6.65455 12.3442 6.50695C11.8589 6.16344 11.9806 5.12507 11.9806 4.38841C11.9806 2.0857 12.2989 1.12569 11.3593 0.877525C11.0469 0.795239 10.818 0.740381 10.0203 0.731239C8.99718 0.719483 8.13031 0.735157 7.64024 0.997689C7.31352 1.17271 7.06193 1.56324 7.21574 1.58545C7.40534 1.61288 7.8346 1.71214 8.06235 2.05174C8.35687 2.48929 8.34614 3.47411 8.34614 3.47411C8.34614 3.47411 8.51546 6.18434 7.95145 6.52132C7.56392 6.75251 7.03331 6.28099 5.89457 4.12457C5.31149 3.02089 4.8703 1.79965 4.8703 1.79965C4.8703 1.79965 4.78564 1.57239 4.63421 1.45092C4.45058 1.30332 4.19302 1.2563 4.19302 1.2563L1.46721 1.27459C1.46721 1.27459 1.05822 1.28765 0.907974 1.48226C0.774426 1.65598 0.897242 2.01386 0.897242 2.01386C0.897242 2.01386 3.03163 7.48263 5.44742 10.2399C7.66409 12.7672 10.18 12.6014 10.18 12.6014H11.32C11.32 12.6014 11.6646 12.5596 11.8399 12.3519C12.002 12.1612 11.9961 11.8033 11.9961 11.8033C11.9961 11.8033 11.9734 10.1275 12.6841 9.88069C13.384 9.63775 14.2831 11.5003 15.2358 12.2174C15.956 12.7594 16.5033 12.6405 16.5033 12.6405L19.0515 12.6014C19.0515 12.6014 20.3846 12.5112 19.7526 11.3632Z" fill="#182D4D"/>
</svg>
