<svg width="16" height="22" viewBox="0 0 16 22" fill="none" xmlns="http://www.w3.org/2000/svg">
<path d="M8.06525 17.4977C11.6178 17.4977 14.4977 14.6178 14.4977 11.0653C14.4977 7.51271 11.6178 4.63281 8.06525 4.63281C4.51271 4.63281 1.63281 7.51271 1.63281 11.0653C1.63281 14.6178 4.51271 17.4977 8.06525 17.4977Z" stroke="#CCE1E3" stroke-width="2" stroke-miterlimit="10"/>
<path d="M8.06445 7.49219V11.0658H11.638" stroke="#CCE1E3" stroke-width="2" stroke-linecap="round" stroke-linejoin="round"/>
<path d="M4.49219 5.71578L5.10044 2.36066C5.13031 2.1959 5.21708 2.04687 5.3456 1.93955C5.47413 1.83223 5.63626 1.77344 5.8037 1.77344H10.3278C10.4953 1.77344 10.6574 1.83223 10.7859 1.93955C10.9144 2.04687 11.0012 2.19591 11.0311 2.36066L11.6393 5.71581" stroke="#CCE1E3" stroke-width="2" stroke-linecap="round" stroke-linejoin="round"/>
<path d="M4.49219 16.4141L5.10044 19.7692C5.13031 19.934 5.21708 20.083 5.3456 20.1903C5.47413 20.2976 5.63626 20.3564 5.8037 20.3564H10.3278C10.4953 20.3564 10.6574 20.2976 10.7859 20.1903C10.9144 20.083 11.0012 19.934 11.0311 19.7692L11.6393 16.4141" stroke="#CCE1E3" stroke-width="2" stroke-linecap="round" stroke-linejoin="round"/>
</svg>
